<svg width="195" height="37" fill="none" xmlns="http://www.w3.org/2000/svg"><path d="M41.645 22.987h2.842c.065.573.368 1.038.908 1.396.547.352 1.215.528 2.002.528.782 0 1.416-.166 1.905-.498.495-.339.742-.769.742-1.29 0-.455-.182-.823-.547-1.103-.364-.28-.973-.514-1.826-.703l-1.836-.4c-2.585-.554-3.877-1.866-3.877-3.936 0-1.29.501-2.33 1.504-3.125 1.009-.794 2.305-1.191 3.887-1.191 1.627 0 2.926.387 3.896 1.162.97.768 1.468 1.793 1.494 3.076h-2.763a1.796 1.796 0 00-.791-1.397c-.476-.345-1.084-.517-1.827-.517-.729 0-1.318.16-1.767.478-.443.32-.664.74-.664 1.26 0 .43.179.778.537 1.045.364.267.954.495 1.767.684l1.71.36c1.412.3 2.44.77 3.085 1.407.645.632.967 1.485.967 2.559 0 1.367-.514 2.454-1.543 3.262-1.029.8-2.418 1.2-4.17 1.2-1.699 0-3.053-.377-4.062-1.132-1.003-.762-1.527-1.804-1.573-3.125zm13.682-8.867h2.852v2.412h1.933v2.148H58.18v5.01c0 .788.41 1.182 1.23 1.182.267 0 .498-.017.694-.05v2.1c-.333.078-.785.118-1.358.118-1.23 0-2.11-.222-2.637-.665-.52-.442-.78-1.175-.78-2.197V18.68h-1.476v-2.148h1.475V14.12zM65.62 25.106c.632 0 1.165-.182 1.602-.547.442-.371.664-.837.664-1.396V22.4l-2.207.137c-.534.039-.948.172-1.24.4a1.09 1.09 0 00-.43.898c0 .391.146.7.44.928.292.228.683.342 1.171.342zm-.937 2.06c-1.01 0-1.846-.296-2.51-.888-.664-.593-.996-1.354-.996-2.285 0-.95.351-1.696 1.054-2.237.704-.54 1.71-.85 3.018-.927l2.637-.157v-.693c0-.482-.16-.86-.479-1.133-.312-.273-.739-.41-1.28-.41-.52 0-.946.117-1.278.352a1.44 1.44 0 00-.596.947h-2.608c.053-1.029.492-1.856 1.319-2.48.827-.632 1.924-.948 3.29-.948 1.342 0 2.416.32 3.224.957.807.638 1.21 1.485 1.21 2.54V27h-2.753v-1.602h-.059c-.287.547-.723.98-1.309 1.299a3.945 3.945 0 01-1.884.468zM72.534 27V16.532h2.754v1.884h.059c.182-.664.488-1.171.918-1.523.43-.352.953-.527 1.572-.527.3 0 .57.035.81.107v2.51c-.267-.11-.612-.166-1.035-.166-.703 0-1.25.205-1.64.615-.39.41-.586.983-.586 1.719V27h-2.852zm8.047-12.88h2.852v2.412h1.933v2.148h-1.933v5.01c0 .788.41 1.182 1.23 1.182.267 0 .498-.017.693-.05v2.1c-.332.078-.784.118-1.357.118-1.23 0-2.11-.222-2.637-.665-.52-.442-.78-1.175-.78-2.197V18.68h-1.476v-2.148h1.475V14.12zm16.016 2.412V27h-2.754v-1.884h-.059c-.547 1.386-1.592 2.08-3.135 2.08-1.145 0-2.06-.349-2.744-1.045-.683-.703-1.025-1.66-1.025-2.871v-6.748h2.851v6.152c0 .697.166 1.227.499 1.592.338.364.823.547 1.455.547.631 0 1.132-.209 1.504-.625.37-.417.556-.974.556-1.67v-5.996h2.852zm7.968-.166c1.329 0 2.373.478 3.135 1.435.768.957 1.153 2.279 1.153 3.965 0 1.68-.378 3.001-1.133 3.965-.755.957-1.791 1.435-3.106 1.435-.748 0-1.409-.169-1.982-.507a3.22 3.22 0 01-1.27-1.416h-.058v5.176h-2.852V16.532h2.813v1.826h.058a3.322 3.322 0 011.27-1.465c.566-.352 1.224-.527 1.972-.527zm-.957 8.506c.71 0 1.273-.28 1.69-.84.423-.56.635-1.315.635-2.266 0-.95-.212-1.706-.635-2.265-.417-.567-.98-.85-1.69-.85-.696 0-1.256.286-1.679.86-.423.566-.635 1.318-.635 2.255 0 .944.208 1.7.625 2.266.423.56.986.84 1.689.84zm16.075-.313V27h-9.112V12.91h2.95v11.65h6.162zm5.546.547c.632 0 1.166-.182 1.602-.547.443-.371.664-.837.664-1.396V22.4l-2.207.137c-.534.039-.947.172-1.24.4a1.09 1.09 0 00-.43.898c0 .391.147.7.44.928.293.228.683.342 1.171.342zm-.937 2.06c-1.009 0-1.846-.296-2.51-.888-.664-.593-.996-1.354-.996-2.285 0-.95.352-1.696 1.055-2.237.703-.54 1.709-.85 3.017-.927l2.637-.157v-.693c0-.482-.159-.86-.478-1.133-.313-.273-.739-.41-1.28-.41-.521 0-.947.117-1.279.352a1.44 1.44 0 00-.596.947h-2.607c.052-1.029.491-1.856 1.318-2.48.827-.632 1.924-.948 3.291-.948 1.341 0 2.416.32 3.223.957.807.638 1.211 1.485 1.211 2.54V27h-2.754v-1.602h-.059c-.286.547-.722.98-1.308 1.299a3.945 3.945 0 01-1.885.468zm7.852-.166V16.532h2.753v1.865h.059c.287-.664.703-1.172 1.25-1.523.553-.358 1.227-.538 2.022-.538 1.158 0 2.054.346 2.685 1.036.632.69.947 1.65.947 2.88V27h-2.851v-6.152c0-.69-.163-1.22-.488-1.592-.326-.37-.805-.556-1.436-.556-.632 0-1.139.211-1.523.634-.378.424-.567.977-.567 1.66V27h-2.851zm15.41.166c-1.309 0-2.347-.485-3.116-1.455-.768-.97-1.152-2.291-1.152-3.964 0-1.66.384-2.972 1.152-3.936.775-.963 1.82-1.445 3.135-1.445.742 0 1.393.179 1.953.537.567.358.98.833 1.241 1.426h.058v-5.42h2.852V27h-2.813v-1.796h-.049a3.132 3.132 0 01-1.259 1.425c-.58.358-1.247.537-2.002.537zm.967-8.515c-.717 0-1.283.28-1.7.84-.41.56-.615 1.318-.615 2.275 0 .964.205 1.722.615 2.276.417.553.983.83 1.7.83.709 0 1.272-.277 1.689-.83.423-.56.635-1.319.635-2.276 0-.95-.212-1.706-.635-2.265-.417-.567-.98-.85-1.689-.85zM155.63 27V16.53h2.851V27h-2.851zm2.51-12.051c-.293.286-.655.43-1.084.43a1.49 1.49 0 01-1.084-.43 1.407 1.407 0 01-.44-1.045c0-.417.147-.765.44-1.045a1.49 1.49 0 011.084-.43c.429 0 .791.143 1.084.43.293.28.439.628.439 1.045 0 .41-.146.758-.439 1.045zM160.386 27V16.532h2.754v1.865h.058c.287-.664.703-1.172 1.25-1.523.554-.358 1.227-.538 2.022-.538 1.159 0 2.054.346 2.685 1.036.632.69.948 1.65.948 2.88V27h-2.852v-6.152c0-.69-.163-1.22-.488-1.592-.326-.37-.804-.556-1.436-.556-.631 0-1.139.211-1.523.634-.378.424-.567.977-.567 1.66V27h-2.851zm16.357-2.226c.716 0 1.283-.267 1.699-.8.424-.541.635-1.283.635-2.227s-.211-1.696-.635-2.256c-.423-.56-.989-.84-1.699-.84-.703 0-1.263.28-1.68.84-.41.553-.615 1.305-.615 2.256 0 .95.205 1.692.615 2.226.411.534.971.8 1.68.8zm-.049 6.172c-1.36 0-2.48-.3-3.359-.899-.872-.592-1.367-1.36-1.484-2.304h2.793c.11.364.358.657.742.879.39.227.853.341 1.386.341.723 0 1.286-.185 1.69-.556.404-.365.605-.856.605-1.475v-1.836h-.058c-.248.567-.661 1.022-1.24 1.367-.58.339-1.244.508-1.993.508-1.289 0-2.321-.469-3.095-1.406-.769-.938-1.153-2.217-1.153-3.838 0-1.66.384-2.969 1.153-3.926.768-.957 1.816-1.435 3.144-1.435.742 0 1.397.179 1.963.537.566.358.99.843 1.27 1.455h.048v-1.826h2.813v10.322c0 1.244-.479 2.236-1.436 2.979-.95.742-2.213 1.113-3.789 1.113z" fill="#0F2137"/><g clip-path="url(#clip0)"><path d="M20.212.54a16.208 16.208 0 00-10.314.672 16.004 16.004 0 00-7.763 6.755 15.757 15.757 0 00-1.993 10.04 15.832 15.832 0 004.601 9.161L22.63 9.466a5.325 5.325 0 001.394-2.392 5.285 5.285 0 000-2.762 5.324 5.324 0 00-1.396-2.391A5.404 5.404 0 0020.212.54z" fill="url(#paint0_linear)"/><path d="M6.79 36.46c3.42.911 7.05.676 10.322-.667a16.008 16.008 0 007.769-6.76 15.76 15.76 0 001.992-10.048A15.836 15.836 0 0022.26 9.82L4.375 27.534a5.323 5.323 0 00-1.395 2.392 5.284 5.284 0 000 2.761c.245.905.726 1.73 1.394 2.392a5.404 5.404 0 002.416 1.382z" fill="url(#paint1_linear)"/><path style="mix-blend-mode:multiply" d="M22.261 9.82L4.375 27.534a5.323 5.323 0 00-1.395 2.392 5.284 5.284 0 000 2.761c.245.905.726 1.73 1.394 2.392a5.404 5.404 0 002.416 1.382 16.28 16.28 0 005.87.448c-7.842-7.47 9.601-27.09 9.601-27.09z" fill="url(#paint2_linear)"/><g style="mix-blend-mode:multiply"><path style="mix-blend-mode:multiply" d="M6.461 36.362c-2.539-7.782 12.71-23.452 15.4-26.134L4.375 27.534a5.325 5.325 0 00-1.372 2.31 5.284 5.284 0 00-.065 2.678c.209.884.642 1.7 1.259 2.373a5.396 5.396 0 002.264 1.467z" fill="url(#paint3_linear)"/><path style="mix-blend-mode:multiply" d="M22.202 9.89a.806.806 0 01.06-.058l-.06.058z" fill="url(#paint4_linear)"/></g><path style="mix-blend-mode:screen" d="M23.941 7.365L4.722 27.157 22.63 9.467a5.294 5.294 0 001.311-2.102z" fill="url(#paint5_radial)"/></g><defs><linearGradient id="paint0_linear" x1="16.411" y1="-16.693" x2="10.589" y2="20.666" gradientUnits="userSpaceOnUse"><stop stop-color="#0096D9"/><stop offset="1" stop-color="#00C198"/></linearGradient><linearGradient id="paint1_linear" x1="9.136" y1="13.619" x2="18.506" y2="32.425" gradientUnits="userSpaceOnUse"><stop stop-color="#002DD9"/><stop offset="1" stop-color="#00B2AB"/></linearGradient><linearGradient id="paint2_linear" x1="23.808" y1="-3.424" x2="6.083" y2="38.172" gradientUnits="userSpaceOnUse"><stop stop-color="#3482C0"/><stop offset=".45" stop-color="#96BEDE"/><stop offset=".83" stop-color="#E1EDF6"/><stop offset="1" stop-color="#fff"/></linearGradient><linearGradient id="paint3_linear" x1="1361.37" y1="132.276" x2="-132.261" y2="2238.51" gradientUnits="userSpaceOnUse"><stop stop-color="#3482C0"/><stop offset=".45" stop-color="#96BEDE"/><stop offset=".83" stop-color="#E1EDF6"/><stop offset="1" stop-color="#fff"/></linearGradient><linearGradient id="paint4_linear" x1="25.674" y1="3.269" x2="10.596" y2="32.713" gradientUnits="userSpaceOnUse"><stop stop-color="#569FA1"/><stop offset=".36" stop-color="#97C4C5"/><stop offset=".8" stop-color="#E2EEEF"/><stop offset="1" stop-color="#fff"/></linearGradient><radialGradient id="paint5_radial" cx="0" cy="0" r="1" gradientUnits="userSpaceOnUse" gradientTransform="matrix(27.8184 0 0 27.5367 21.595 32.383)"><stop stop-color="#FF0"/><stop offset="1"/></radialGradient><clipPath id="clip0"><path fill="#fff" transform="translate(.001)" d="M0 0h27v37H0z"/></clipPath></defs></svg>